# xmcd
#
# Track frame offsets:
#	150
#	12374
#	27484
#	41561
#	55324
#	67336
#	79444
#	93050
#	105579
#	117610
#
# Disc length: 1733 seconds
#
# Revision: 1
# Processed by: cddbd v1.5.2PL0 Copyright (c) Steve Scherf et al.
# Submitted via: audiograbber 1.83.01
#
DISCID=8906c30a
DTITLE=Moe Bandy - Best Of The Best
DYEAR=2006
DGENRE=Country
TTITLE0=It's A Cheating Situation
TTITLE1=Hank Williams, You Wrote My Life
TTITLE2=I Cheated Me Right Out Of You
TTITLE3=Till I'm Too Old To Die Young
TTITLE4=She's Not Really Cheatin' (She's Just Gettin' Even)
TTITLE5=It Was Always So Easy (To Find An Unhappy Woman)
TTITLE6=I Just Started Hatin' Cheatin' Songs Today
TTITLE7=Two Lonely People
TTITLE8=Let's Get Over Them Together
TTITLE9=Barstool Mountain
EXTD=
EXTT0=
EXTT1=
EXTT2=
EXTT3=
EXTT4=
EXTT5=
EXTT6=
EXTT7=
EXTT8=
EXTT9=
PLAYORDER=
